HIERARCHY
ROOT Hips
{
	OFFSET 0.000000 89.005402 0.000000
	CHANNELS 6 Xposition Yposition Zposition Xrotation Yrotation Zrotation
	JOINT Spine
	{
		OFFSET 0.116900 10.681000 0.373400
		CHANNELS 3 Xrotation Yrotation Zrotation
		JOINT Spine1
		{
			OFFSET 0.000000 13.840401 0.053500
			CHANNELS 3 Xrotation Yrotation Zrotation
			JOINT Spine2
			{
				OFFSET 0.000000 14.712700 -0.366200
				CHANNELS 3 Xrotation Yrotation Zrotation
				JOINT Neck
				{
					OFFSET 0.000000 35.415497 -3.314200
					CHANNELS 3 Xrotation Yrotation Zrotation
					JOINT Head
					{
						OFFSET 0.000000 16.899200 1.218300
						CHANNELS 3 Xrotation Yrotation Zrotation
						JOINT HeadTop_End
						{
							OFFSET 0.000000 22.206207 2.192500
							CHANNELS 3 Xrotation Yrotation Zrotation
							End Site
							{
								OFFSET 0.000000 22.314178 0.000000
							}
						}
					}
				}
				JOINT LeftShoulder
				{
					OFFSET 12.896400 26.716293 -4.548400
					CHANNELS 3 Xrotation Yrotation Zrotation
					JOINT LeftArm
					{
						OFFSET 19.027000 -4.857010 -1.718400
						CHANNELS 3 Xrotation Yrotation Zrotation
						JOINT LeftForeArm
						{
							OFFSET 24.179897 0.000000 0.000000
							CHANNELS 3 Xrotation Yrotation Zrotation
							JOINT LeftHand
							{
								OFFSET 27.156403 0.000000 0.000000
								CHANNELS 3 Xrotation Yrotation Zrotation
								JOINT LeftHandIndex1
								{
									OFFSET 16.441200 0.000000 0.000000
									CHANNELS 3 Xrotation Yrotation Zrotation
									JOINT LeftHandIndex2
									{
										OFFSET 4.821899 0.000000 0.000000
										CHANNELS 3 Xrotation Yrotation Zrotation
										JOINT LeftHandIndex3
										{
											OFFSET 6.386497 0.000000 0.000000
											CHANNELS 3 Xrotation Yrotation Zrotation
											JOINT LeftHandIndex4
											{
												OFFSET 5.188988 0.000000 0.000000
												CHANNELS 3 Xrotation Yrotation Zrotation
												End Site
												{
													OFFSET -0.178703 5.185913 0.000177
												}
											}
										}
									}
								}
								JOINT LeftHandThumb1
								{
									OFFSET 6.534897 -5.032593 5.900300
									CHANNELS 3 Xrotation Yrotation Zrotation
									JOINT LeftHandThumb2
									{
										OFFSET 3.818176 -2.204422 2.204423
										CHANNELS 3 Xrotation Yrotation Zrotation
										JOINT LeftHandThumb3
										{
											OFFSET 3.252098 -1.877594 1.877601
											CHANNELS 3 Xrotation Yrotation Zrotation
											JOINT LeftHandThumb4
											{
												OFFSET 5.251778 -3.032120 3.032117
												CHANNELS 3 Xrotation Yrotation Zrotation
												End Site
												{
													OFFSET 0.000023 6.780014 0.000000
												}
											}
										}
									}
								}
							}
						}
					}
				}
				JOINT RightShoulder
				{
					OFFSET -12.896300 26.716293 -4.548400
					CHANNELS 3 Xrotation Yrotation Zrotation
					JOINT RightArm
					{
						OFFSET -19.027000 -4.857010 -1.718400
						CHANNELS 3 Xrotation Yrotation Zrotation
						JOINT RightForeArm
						{
							OFFSET -24.179897 0.000000 0.000000
							CHANNELS 3 Xrotation Yrotation Zrotation
							JOINT RightHand
							{
								OFFSET -27.156403 0.000000 0.000000
								CHANNELS 3 Xrotation Yrotation Zrotation
								JOINT RightHandThumb1
								{
									OFFSET -6.591202 -4.852203 5.988100
									CHANNELS 3 Xrotation Yrotation Zrotation
									JOINT RightHandThumb2
									{
										OFFSET -3.818176 -2.204422 2.204423
										CHANNELS 3 Xrotation Yrotation Zrotation
										JOINT RightHandThumb3
										{
											OFFSET -3.252098 -1.877594 1.877601
											CHANNELS 3 Xrotation Yrotation Zrotation
											JOINT RightHandThumb4
											{
												OFFSET -5.251778 -3.032120 3.032117
												CHANNELS 3 Xrotation Yrotation Zrotation
												End Site
												{
													OFFSET -0.000023 6.780014 0.000000
												}
											}
										}
									}
								}
								JOINT RightHandIndex1
								{
									OFFSET -16.029404 0.000000 0.000000
									CHANNELS 3 Xrotation Yrotation Zrotation
									JOINT RightHandIndex2
									{
										OFFSET -5.213303 0.000000 0.000000
										CHANNELS 3 Xrotation Yrotation Zrotation
										JOINT RightHandIndex3
										{
											OFFSET -6.386528 0.000000 0.000000
											CHANNELS 3 Xrotation Yrotation Zrotation
											JOINT RightHandIndex4
											{
												OFFSET -5.189026 0.000000 0.000000
												CHANNELS 3 Xrotation Yrotation Zrotation
												End Site
												{
													OFFSET 0.236702 5.183624 0.001972
												}
											}
										}
									}
								}
							}
						}
					}
				}
			}
		}
	}
	JOINT LeftUpLeg
	{
		OFFSET 14.073000 -7.904099 -1.463000
		CHANNELS 3 Xrotation Yrotation Zrotation
		JOINT LeftLeg
		{
			OFFSET -0.109806 -34.073280 4.093200
			CHANNELS 3 Xrotation Yrotation Zrotation
			JOINT LeftFoot
			{
				OFFSET 0.109806 -29.899420 -6.319000
				CHANNELS 3 Xrotation Yrotation Zrotation
				JOINT LeftToeBase
				{
					OFFSET 1.551100 -14.988700 20.535801
					CHANNELS 3 Xrotation Yrotation Zrotation
					JOINT LeftToe_End
					{
						OFFSET 0.221200 0.570800 13.248301
						CHANNELS 3 Xrotation Yrotation Zrotation
						End Site
						{
							OFFSET 0.000000 13.262435 0.000000
						}
					}
				}
			}
		}
	}
	JOINT RightUpLeg
	{
		OFFSET -13.839300 -7.904099 -1.463000
		CHANNELS 3 Xrotation Yrotation Zrotation
		JOINT RightLeg
		{
			OFFSET 0.109694 -34.073219 4.093300
			CHANNELS 3 Xrotation Yrotation Zrotation
			JOINT RightFoot
			{
				OFFSET -0.109694 -29.899384 -6.319200
				CHANNELS 3 Xrotation Yrotation Zrotation
				JOINT RightToeBase
				{
					OFFSET -1.551100 -14.988700 20.535801
					CHANNELS 3 Xrotation Yrotation Zrotation
					JOINT RightToe_End
					{
						OFFSET -0.221200 0.570900 13.248299
						CHANNELS 3 Xrotation Yrotation Zrotation
						End Site
						{
							OFFSET 0.000000 13.262440 0.000000
						}
					}
				}
			}
		}
	}
}
MOTION
Frames: 4
Frame Time: 0.033333
-0.328146 73.631607 -0.288130 -6.842565 -48.755912 -0.885939 9.458380 6.028716 -2.259066 6.153296 1.419133 -2.744465 6.138838 1.461059 -2.750667 1.839779 9.606728 2.549182 -0.091389 25.133658 -1.876081 0.000000 0.000000 -0.000000 0.174790 0.948790 -3.864149 -39.540556 8.229772 -55.350477 -0.000017 -112.259002 -0.000017 1.888330 -3.703369 -16.982751 0.255305 3.378219 -45.814341 5.654095 5.847758 -88.067448 2.162134 4.544817 -50.866365 -0.000003 -0.000001 -0.000001 -6.141224 -11.690805 -6.761686 9.914122 42.595519 3.409832 -0.422806 8.108095 27.509108 -0.000005 0.000002 -0.000001 6.028924 16.101688 -1.176934 -49.754564 30.590375 72.641671 0.000042 109.940029 -0.000060 -15.265275 14.533591 7.229235 -7.341106 13.749661 7.412337 9.855751 -44.489096 -3.903272 -0.115766 -14.513104 -28.973878 -0.000002 -0.000000 -0.000000 -0.124380 -2.384784 45.108864 4.500582 -4.654544 88.071164 1.723227 -3.618379 50.920109 -0.000001 -0.000003 0.000002 -26.952282 7.584086 19.087324 53.765644 -5.332312 3.665811 -23.468288 -6.832035 -17.900633 -1.587913 -0.000015 -0.000005 -0.000000 -0.000002 -0.000000 -18.949539 -11.646267 -31.532654 55.662429 -3.477973 -7.802706 -28.069292 -8.819973 24.442279 -0.013476 -0.000017 0.000001 0.000000 0.000001 -0.000000 
-0.323729 73.132774 -0.234271 -6.560875 -48.004304 -0.658268 9.275062 6.148610 -1.928591 5.102214 1.308062 -2.190438 5.094585 1.334626 -2.187245 1.217919 10.639235 3.082245 3.175810 24.190025 -3.100265 -0.000001 -0.000000 -0.000001 0.310780 1.658365 -4.842027 -43.695210 8.090472 -53.620178 0.000023 -111.544912 0.000022 1.681719 -4.928031 -16.331800 0.255305 3.378219 -45.814344 5.654097 5.847760 -88.067448 2.162134 4.544816 -50.866369 0.000001 -0.000001 0.000004 -6.141226 -11.690808 -6.761688 9.914127 42.595522 3.409839 -0.422806 8.108098 27.509104 -0.000000 0.000005 -0.000003 5.298112 15.433454 -2.458268 -49.677045 29.443836 75.603965 -0.000041 109.058109 0.000041 -13.305762 15.507781 7.926629 -7.341106 13.749662 7.412339 9.855755 -44.489096 -3.903278 -0.115767 -14.513107 -28.973878 -0.000002 0.000001 0.000001 -0.124381 -2.384784 45.108861 4.500583 -4.654544 88.071171 1.723228 -3.618384 50.920109 -0.000000 0.000000 0.000001 -28.134774 7.120055 19.136636 55.257296 -5.982685 3.668282 -23.952227 -6.825619 -17.545694 -1.590791 0.000019 0.000002 0.000000 0.000002 -0.000000 -19.202597 -11.849291 -32.077311 56.811482 -3.585606 -7.560637 -28.845241 -9.014129 24.738288 -0.011124 -0.000014 -0.000003 -0.000000 -0.000001 0.000000 
-0.335694 72.657036 -0.170305 -6.158837 -47.363148 -0.506831 9.245760 6.432514 -1.758223 4.054043 1.192557 -1.758907 4.052089 1.206126 -1.748001 0.695814 11.601227 3.654437 5.562735 22.878007 -3.621152 -0.000001 0.000000 -0.000000 0.561414 2.334050 -6.185024 -47.459016 7.111392 -52.493525 0.000065 -109.771481 0.000062 1.783844 -5.906847 -16.194001 0.255305 3.378221 -45.814348 5.654097 5.847760 -88.067448 2.162136 4.544819 -50.866369 -0.000002 -0.000000 -0.000004 -6.141224 -11.690806 -6.761688 9.914120 42.595515 3.409837 -0.422806 8.108095 27.509103 -0.000002 0.000000 -0.000001 4.517498 14.559040 -3.583144 -49.491725 28.600403 78.660727 0.000008 107.792918 -0.000012 -11.505675 16.202843 8.210559 -7.341105 13.749657 7.412337 9.855748 -44.489089 -3.903274 -0.115764 -14.513102 -28.973878 0.000001 -0.000003 -0.000001 -0.124381 -2.384787 45.108861 4.500583 -4.654544 88.071164 1.723227 -3.618383 50.920116 -0.000000 0.000001 0.000002 -29.452155 6.813515 19.460862 56.754972 -6.774004 3.676890 -24.445368 -6.858030 -17.123844 -1.593093 0.000002 -0.000001 0.000000 -0.000002 -0.000000 -19.291895 -11.799856 -32.215417 57.804355 -3.916922 -7.305172 -29.508336 -9.292809 25.115272 -0.011741 -0.000006 0.000014 -0.000000 0.000000 0.000000 
-0.358710 72.215645 -0.116336 -5.764286 -46.767702 -0.372404 9.288811 6.762925 -1.648724 3.063730 1.078836 -1.345965 3.067181 1.080144 -1.328602 0.301236 12.474378 4.165339 7.526944 21.536771 -3.970416 0.000001 0.000000 0.000002 0.826455 2.946330 -7.425622 -50.793791 6.002462 -51.748911 0.000158 -107.978099 0.000153 1.886181 -6.850670 -16.028340 0.255302 3.378219 -45.814348 5.654095 5.847760 -88.067448 2.162133 4.544818 -50.866365 0.000000 0.000001 -0.000002 -6.141223 -11.690809 -6.761685 9.914125 42.595519 3.409837 -0.422810 8.108091 27.509109 -0.000001 0.000000 0.000001 3.757949 13.808341 -4.575218 -49.149775 27.821242 81.319761 0.000109 106.674707 -0.000109 -9.836191 16.894446 8.492593 -7.341106 13.749657 7.412337 9.855752 -44.489093 -3.903277 -0.115770 -14.513105 -28.973878 0.000001 -0.000000 -0.000000 -0.124382 -2.384788 45.108861 4.500582 -4.654545 88.071164 1.723226 -3.618381 50.920109 0.000001 0.000001 -0.000000 -30.701714 6.559291 19.743324 58.127348 -7.505273 3.783518 -24.886539 -6.879264 -16.764771 -1.593558 -0.000005 0.000002 -0.000000 -0.000002 -0.000000 -19.117399 -11.412154 -32.116297 58.683134 -4.618039 -6.997916 -30.063597 -9.621260 25.686202 -0.012364 0.000007 0.000001 0.000000 -0.000000 0.000000 
